<svg xmlns="http://www.w3.org/2000/svg" width="51.705" height="61.09" viewBox="0 0 51.705 61.09">
    <defs>
        <style>
            .cls-1{fill:#fff}
        </style>
    </defs>
    <g id="android_logo" data-name="android logo" transform="translate(-42.5 -.041)">
        <g id="Groupe_173" data-name="Groupe 173" transform="translate(42.5 .041)">
            <path id="Tracé_621" d="M46.289 179.1a3.652 3.652 0 0 0-2.684 1.1 3.589 3.589 0 0 0-1.1 2.64v15.8a3.771 3.771 0 0 0 3.789 3.789 3.568 3.568 0 0 0 2.662-1.1 3.683 3.683 0 0 0 1.082-2.684v-15.8a3.571 3.571 0 0 0-1.1-2.64 3.631 3.631 0 0 0-2.649-1.105z" class="cls-1" data-name="Tracé 621" transform="translate(-42.5 -159.321)"/>
            <path id="Tracé_622" d="M147.939 5.647l2.607-4.8a.478.478 0 0 0-.188-.729.5.5 0 0 0-.729.221l-2.64 4.849a18.376 18.376 0 0 0-14.757 0L129.581.334a.506.506 0 0 0-.729-.221.482.482 0 0 0-.188.729l2.607 4.8a16.156 16.156 0 0 0-6.318 5.633 14.208 14.208 0 0 0-2.353 7.915h33.955a14.208 14.208 0 0 0-2.353-7.909 16.075 16.075 0 0 0-6.263-5.634zm-15.077 7a1.361 1.361 0 0 1-1.005.42 1.343 1.343 0 0 1-.994-.42 1.42 1.42 0 0 1-.409-1.005 1.375 1.375 0 0 1 .409-1.005 1.326 1.326 0 0 1 .994-.42 1.368 1.368 0 0 1 1.005.42 1.4 1.4 0 0 1 .42 1.005 1.32 1.32 0 0 1-.42 1.009zm15.475 0a1.287 1.287 0 0 1-.994.42 1.368 1.368 0 0 1-1.005-.42 1.343 1.343 0 0 1-.42-1.005 1.433 1.433 0 0 1 1.425-1.425 1.361 1.361 0 0 1 .994.42 1.44 1.44 0 0 1 .409 1.005 1.393 1.393 0 0 1-.409 1.009z" class="cls-1" data-name="Tracé 622" transform="translate(-113.752 -.041)"/>
            <path id="Tracé_623" d="M124 209.855a4 4 0 0 0 4.032 4.032h2.717l.033 8.34a3.651 3.651 0 0 0 1.1 2.684 3.589 3.589 0 0 0 2.64 1.1 3.771 3.771 0 0 0 3.789-3.789V213.9h5.07v8.329a3.789 3.789 0 1 0 7.577 0V213.9h2.75a3.845 3.845 0 0 0 2.828-1.171 3.883 3.883 0 0 0 1.171-2.861V185.4H124z" class="cls-1" data-name="Tracé 623" transform="translate(-114.998 -164.926)"/>
            <path id="Tracé_624" d="M446.145 179.1a3.734 3.734 0 0 0-3.745 3.745v15.8a3.652 3.652 0 0 0 1.1 2.684 3.589 3.589 0 0 0 2.64 1.1 3.771 3.771 0 0 0 3.789-3.789v-15.8a3.568 3.568 0 0 0-1.1-2.662 3.719 3.719 0 0 0-2.684-1.078z" class="cls-1" data-name="Tracé 624" transform="translate(-398.228 -159.321)"/>
        </g>
    </g>
</svg>
