<svg xmlns="http://www.w3.org/2000/svg" id="php-logo" width="61.103" height="30.702" viewBox="0 0 61.103 30.702">
    <defs>
        <style>
            .cls-1{fill:#fff}
        </style>
    </defs>
    <path id="Tracé_618" d="M4.835 10.123H13.9q3.99.033 5.782 2.3t1.183 6.188a11.868 11.868 0 0 1-1.048 3.517 10.453 10.453 0 0 1-2.164 3.111 7.553 7.553 0 0 1-3.618 2.232 16.658 16.658 0 0 1-3.99.473h-4.06L4.7 34.367H0l4.835-24.244m3.956 3.855L6.763 24.122a2.487 2.487 0 0 0 .406.034h.473a17.78 17.78 0 0 0 5.41-.642q2.164-.71 2.908-4.937.609-3.55-1.217-4.091a15.173 15.173 0 0 0-4.5-.507q-.406.033-.778.034h-.71l.034-.034" class="cls-1" data-name="Tracé 618" transform="translate(0 -3.665)"/>
    <path id="Tracé_619" d="M38.33 0H43l-1.322 6.458h4.192a8.419 8.419 0 0 1 5.14 1.42q1.724 1.352 1.014 5.14l-2.265 11.26h-4.734l2.164-10.753a3.051 3.051 0 0 0-.2-2.4 2.873 2.873 0 0 0-2.333-.71l-3.756-.034-2.773 13.9h-4.666L38.33 0" class="cls-1" data-name="Tracé 619" transform="translate(-12.114)"/>
    <path id="Tracé_620" d="M67.668 10.123h9.062q3.99.033 5.782 2.3T83.7 18.61a11.868 11.868 0 0 1-1.048 3.517 10.453 10.453 0 0 1-2.164 3.111 7.553 7.553 0 0 1-3.618 2.232 16.658 16.658 0 0 1-3.99.473h-4.062l-1.285 6.424h-4.7l4.835-24.244m3.956 3.855L69.6 24.122a2.487 2.487 0 0 0 .406.034h.473a17.78 17.78 0 0 0 5.41-.642q2.164-.71 2.908-4.937.609-3.55-1.217-4.091a15.173 15.173 0 0 0-4.5-.507q-.406.033-.778.034h-.71l.034-.034" class="cls-1" data-name="Tracé 620" transform="translate(-22.747 -3.665)"/>
</svg>
