<svg xmlns="http://www.w3.org/2000/svg" width="60.472" height="60.472" viewBox="0 0 60.472 60.472">
    <defs>
        <style>
            .cls-1{fill:#fff}.cls-2{fill:#294363}
        </style>
    </defs>
    <g id="Swift_logo" data-name="Swift logo">
        <path id="Tracé_664" d="M60.468 16.749c0-.608-.01-1.216-.027-1.825a26.456 26.456 0 0 0-.349-3.972 13.407 13.407 0 0 0-1.245-3.777A12.7 12.7 0 0 0 53.3 1.624 13.4 13.4 0 0 0 49.521.38a26.4 26.4 0 0 0-3.973-.349C44.94.014 44.331.007 43.723 0H16.749a69.414 69.414 0 0 0-2.825.063 23.068 23.068 0 0 0-2.977.313A13.817 13.817 0 0 0 8.09 1.2q-.46.19-.912.42a12.683 12.683 0 0 0-2.484 1.663q-.381.324-.733.677a12.7 12.7 0 0 0-2.336 3.216A13.42 13.42 0 0 0 .38 10.953a26.45 26.45 0 0 0-.349 3.972C.015 15.534.007 16.142 0 16.75v26.973c0 .608.011 1.216.028 1.824a26.512 26.512 0 0 0 .349 3.972A13.389 13.389 0 0 0 1.625 53.3a12.707 12.707 0 0 0 5.552 5.552 13.409 13.409 0 0 0 3.775 1.243 26.385 26.385 0 0 0 3.973.349 92.55 92.55 0 0 0 1.825.027c.722.005 1.444 0 2.167 0H43.723c.608 0 1.216-.011 1.825-.027a26.473 26.473 0 0 0 3.973-.349 13.409 13.409 0 0 0 3.779-1.247 12.71 12.71 0 0 0 5.547-5.548 13.408 13.408 0 0 0 1.245-3.777 26.437 26.437 0 0 0 .349-3.972c.017-.608.023-1.216.027-1.824V18.916c.004-.722.004-1.444 0-2.167z" class="cls-1" data-name="Tracé 664"/>
        <path id="Tracé_665" d="M52.49 43.8c.067-.227.136-.454.194-.687 2.51-10-3.616-21.822-13.981-28.047 4.543 6.158 6.551 13.616 4.766 20.139a16.929 16.929 0 0 1-.562 1.683c-.23-.151-.519-.322-.907-.536a130.723 130.723 0 0 1-21.487-17.627 133.879 133.879 0 0 0 13.055 16.434A140.58 140.58 0 0 1 15.01 21.1a26.806 26.806 0 0 0 2.534 3.5c4.926 6.246 11.349 13.954 19.045 19.872-5.407 3.309-13.047 3.566-20.654 0a31.209 31.209 0 0 1-5.287-3.155 31.674 31.674 0 0 0 14.215 12.19c7.2 3.094 14.356 2.884 19.687.051v.006l.057-.035c.239-.128.477-.261.708-.4 2.575-1.322 7.6-2.627 10.3 2.628.665 1.293 2.078-5.56-3.117-11.953z" class="cls-2" data-name="Tracé 665" transform="translate(-4.577 -6.476)"/>
    </g>
</svg>
