<svg xmlns="http://www.w3.org/2000/svg" width="60.789" height="60.789" viewBox="0 0 60.789 60.789">
    <defs>
        <style>
            .cls-1{fill:#fff}.cls-2{fill:#294363}
        </style>
    </defs>
    <g id="symfony_logo" data-name="symfony logo" transform="translate(0 -8)">
        <circle id="Ellipse_17" cx="30.395" cy="30.395" r="30.395" class="cls-1" data-name="Ellipse 17" transform="translate(0 8)"/>
        <path id="Tracé_646" d="M445.973 467.889a10.885 10.885 0 0 0-7.778 4.158 26.226 26.226 0 0 0-4.758 8.755c-1.9-1.56-3.369-3.577-6.421-4.458a7.853 7.853 0 0 0-7.114 1.3 6.359 6.359 0 0 0-2.175 3.171c-.915 2.976.962 5.627 1.816 6.577l1.865 2a2.831 2.831 0 0 1 .857 2.881 3.44 3.44 0 0 1-4.38 2.017c-.879-.269-2.143-.923-1.86-1.848a8.736 8.736 0 0 1 .532-.986 4.929 4.929 0 0 0 .237-.615 2.469 2.469 0 0 0-1.392-3.093 2.069 2.069 0 0 0-2.842 1.438c-.527 1.719.293 4.836 4.7 6.194 5.159 1.584 9.524-1.223 10.144-4.888.391-2.295-.647-4-2.544-6.194l-1.548-1.711a2.817 2.817 0 0 1-.288-3.757c.818-1.035 1.985-1.477 3.891-.957 2.786.757 4.028 2.69 6.1 4.248-.854 2.808-1.416 5.622-1.921 8.149l-.308 1.882c-1.482 7.771-2.612 12.036-5.552 14.484a4.76 4.76 0 0 1-2.715 1.1.781.781 0 0 1-.894-.64c-.017-.469.381-.684.642-.9a1.627 1.627 0 0 0 .947-1.706 2.577 2.577 0 0 0-2.768-2.458 3.21 3.21 0 0 0-2.976 3.254c.071 2.146 2.073 3.755 5.088 3.652 1.611-.056 5.212-.713 8.762-4.929 4.131-4.836 5.285-10.378 6.155-14.436l.969-5.356c.54.063 1.116.107 1.741.122 5.144.107 7.717-2.556 7.754-4.494a2.1 2.1 0 0 0-1.882-2.3 2.148 2.148 0 0 0-2.038 1.655c-.234 1.082 1.636 2.056.173 3a8.161 8.161 0 0 1-5.525.762l.476-2.637c.974-5 2.175-11.15 6.731-11.3.332-.017 1.548.015 1.575.818.007.269-.059.337-.374.952a2.178 2.178 0 0 0-.425 1.355 2.135 2.135 0 0 0 2.419 2.065 2.619 2.619 0 0 0 2.39-2.832c-.076-2.2-2.4-3.6-5.486-3.5z" class="cls-2" data-name="Tracé 646" transform="translate(-402.351 -448.656)"/>
    </g>
</svg>
