<svg xmlns="http://www.w3.org/2000/svg" width="169.787" height="29.211" viewBox="0 0 169.787 29.211">
    <defs>
        <style>
            .cls-1{fill:#294363;fill-rule:evenodd}
        </style>
    </defs>
    <g id="LOGO_bleu" data-name="LOGO bleu">
        <path id="LAB-5COM" d="M177.878 78.788v1.217H160.92v-28.4h1.217v27.183zm20.1 1.217l-8.627-24.87-9.047 24.87h-1.3l10.345-28.44 10.351 28.44zm12.748 0h-6.491v-28.4h4.95q5.355 0 8.074 1.968a6.439 6.439 0 0 1 2.718 5.538 6.362 6.362 0 0 1-3.408 5.964 7.5 7.5 0 0 1 2.272 12.8q-2.676 2.13-8.112 2.13zm0-1.217a18.519 18.519 0 0 0 3.489-.3 11.878 11.878 0 0 0 3.022-1.014 5.251 5.251 0 0 0 2.252-2.089 6.367 6.367 0 0 0 .811-3.286 5.806 5.806 0 0 0-4.179-5.883l-2.434-.893 2.272-1.3a5.2 5.2 0 0 0 2.8-4.909q0-6.288-9.575-6.288h-3.733v25.962zm33.378-15.052q6.248 0 9.027 2.13a7.234 7.234 0 0 1 2.779 6.106 8.178 8.178 0 0 1-1.1 4.219 7.423 7.423 0 0 1-3.266 2.921 12.036 12.036 0 0 1-5.294 1.055 15.067 15.067 0 0 1-5.761-1.1 9.722 9.722 0 0 1-4.057-2.84l.771-.974A8.839 8.839 0 0 0 240.9 77.9a13.79 13.79 0 0 0 5.355 1.014A8.922 8.922 0 0 0 252.4 77a6.427 6.427 0 0 0 2.13-5.031 6.028 6.028 0 0 0-2.434-5.213q-2.434-1.765-8.276-1.765h-5.518l1.5-13.388h14.646v1.258h-13.51l-1.217 10.873zm34.966 11.076a9.392 9.392 0 0 1-3.083 4.138q-1.988 1.461-5.964 1.461-4.99 0-7.222-3.063t-2.231-9.554v-3.977q0-6.491 2.231-9.554t7.222-3.063q3.976 0 5.964 1.461a9.392 9.392 0 0 1 3.083 4.138l-1.1.527a8.16 8.16 0 0 0-2.63-3.626q-1.7-1.278-5.315-1.278a10.166 10.166 0 0 0-3.408.507 6.448 6.448 0 0 0-2.556 1.724 7.819 7.819 0 0 0-1.7 3.509 23.949 23.949 0 0 0-.568 5.66v3.976a23.949 23.949 0 0 0 .568 5.66 7.819 7.819 0 0 0 1.7 3.509 6.448 6.448 0 0 0 2.556 1.724 10.166 10.166 0 0 0 3.408.507q3.611 0 5.315-1.278a8.16 8.16 0 0 0 2.637-3.631zm21.78 2.556q-2.231 3.043-7.222 3.043t-7.222-3.063q-2.231-3.063-2.231-9.554v-3.977q0-6.491 2.231-9.554t7.222-3.063q4.99 0 7.222 3.063t2.231 9.554v3.976q.003 6.492-2.228 9.575zm-3.814-24.423a9.808 9.808 0 0 0-3.408-.527 10.166 10.166 0 0 0-3.408.507 6.448 6.448 0 0 0-2.556 1.724 7.819 7.819 0 0 0-1.7 3.509 23.949 23.949 0 0 0-.568 5.66v3.976a23.949 23.949 0 0 0 .568 5.66 7.819 7.819 0 0 0 1.7 3.509 6.448 6.448 0 0 0 2.556 1.724 11.7 11.7 0 0 0 6.816 0 6.449 6.449 0 0 0 2.556-1.724 7.82 7.82 0 0 0 1.7-3.509 23.951 23.951 0 0 0 .568-5.66v-3.977a23.951 23.951 0 0 0-.568-5.66 7.82 7.82 0 0 0-1.7-3.509 6.258 6.258 0 0 0-2.553-1.703zm32.451 27.02V54.486l-9.128 19.555-9.128-19.6v25.564l-1.217-.041v-28.4h1.217l9.128 19.6 9.128-19.555 1.217-.041v28.44z" class="cls-1" transform="translate(-160.92 -51.2)"/>
    </g>
</svg>
