<svg xmlns="http://www.w3.org/2000/svg" width="84.491" height="60.757" viewBox="0 0 84.491 60.757">
    <defs>
        <style>
            .cls-1{fill:#fff}.cls-2{fill:#061d2f}.cls-3{clip-path:url(#clip-path)}
        </style>
        <clipPath id="clip-path">
            <path id="Tracé_625" d="M17.9 50.556a4.577 4.577 0 0 1-4.59-4.371 4.436 4.436 0 0 1 4.59-4.371 4.436 4.436 0 0 1 4.59 4.371 4.577 4.577 0 0 1-4.59 4.371zm56.385-23.823c-.437-3.5-2.623-6.338-5.464-8.524l-1.093-.874-.874 1.093c-1.748 1.967-2.4 5.464-2.185 8.086a11.761 11.761 0 0 0 1.967 5.464c-.874.437-1.967.874-2.841 1.311a18.407 18.407 0 0 1-5.9.874H1.29l-.219 1.311a24.588 24.588 0 0 0 1.967 12.459l.874 1.53v.219c5.245 8.742 14.643 12.676 24.915 12.676 19.669 0 35.842-8.524 43.491-26.882 5.027.219 10.053-1.093 12.457-5.9l.656-1.093-1.093-.656a13.337 13.337 0 0 0-10.053-1.093zm-28.193-3.5h-8.523v8.527h8.523zm0-10.709h-8.523v8.524h8.523zm0-10.928h-8.523v8.524h8.523V1.6zm10.49 21.637h-8.523v8.527h8.523zm-31.69 0H16.37v8.527h8.523v-8.523zm10.709 0h-8.523v8.527H35.6zm-21.2 0H5.879v8.527H14.4v-8.523zM35.6 12.528h-8.522v8.524H35.6zm-10.709 0H16.37v8.524h8.523v-8.524z" class="cls-1" data-name="Tracé 625" transform="translate(-.94 -1.6)"/>
        </clipPath>
    </defs>
    <g id="docker_logo" data-name="docker logo" transform="translate(-.94 -1.6)">
        <path id="SVGID_1_" d="M17.9 50.556a4.577 4.577 0 0 1-4.59-4.371 4.436 4.436 0 0 1 4.59-4.371 4.436 4.436 0 0 1 4.59 4.371 4.577 4.577 0 0 1-4.59 4.371zm56.385-23.823c-.437-3.5-2.623-6.338-5.464-8.524l-1.093-.874-.874 1.093c-1.748 1.967-2.4 5.464-2.185 8.086a11.761 11.761 0 0 0 1.967 5.464c-.874.437-1.967.874-2.841 1.311a18.407 18.407 0 0 1-5.9.874H1.29l-.219 1.311a24.588 24.588 0 0 0 1.967 12.459l.874 1.53v.219c5.245 8.742 14.643 12.676 24.915 12.676 19.669 0 35.842-8.524 43.491-26.882 5.027.219 10.053-1.093 12.457-5.9l.656-1.093-1.093-.656a13.337 13.337 0 0 0-10.053-1.093zm-28.193-3.5h-8.523v8.527h8.523zm0-10.709h-8.523v8.524h8.523zm0-10.928h-8.523v8.524h8.523V1.6zm10.49 21.637h-8.523v8.527h8.523zm-31.69 0H16.37v8.527h8.523v-8.523zm10.709 0h-8.523v8.527H35.6zm-21.2 0H5.879v8.527H14.4v-8.523zM35.6 12.528h-8.522v8.524H35.6zm-10.709 0H16.37v8.524h8.523v-8.524z" class="cls-2"/>
        <g id="Groupe_174" class="cls-3" data-name="Groupe 174" transform="translate(.94 1.6)">
            <path id="SVGID_3_" d="M-48.8-21h2786.054v330.888H-48.8z" class="cls-1" transform="translate(-59.906 -28.393)"/>
        </g>
    </g>
</svg>
