<svg xmlns="http://www.w3.org/2000/svg" width="59.705" height="59.705" viewBox="0 0 59.705 59.705">
    <defs>
        <style>
            .cls-1{fill:#fff}
        </style>
    </defs>
    <path id="drupal_logo" d="M50.94 368.765a29.822 29.822 0 1 0 8.765 21.088 29.65 29.65 0 0 0-8.765-21.088zm-21.087 40.467a16.38 16.38 0 0 1-16.347-16.347c0-7.629 5.116-12.745 9.619-17.248 2.985-2.985 5.877-5.877 6.728-9.1.854 3.223 3.7 6.111 6.728 9.1 4.5 4.5 9.619 9.619 9.619 17.248a16.38 16.38 0 0 1-16.347 16.347z" class="cls-1" data-name="drupal logo" transform="translate(0 -360)"/>
</svg>
