<svg xmlns="http://www.w3.org/2000/svg" id="javascript-js_logo" width="60.115" height="60.115" data-name="javascript-js logo" viewBox="0 0 60.115 60.115">
    <defs>
        <style>
            .cls-1{fill:#fff}.cls-2{fill:#294363}
        </style>
    </defs>
    <path id="Tracé_647" d="M0 0h60.115v60.115H0z" class="cls-1" data-name="Tracé 647"/>
    <path id="Tracé_648" d="M67.3 140.137l4.6-2.794c.892 1.573 1.691 2.912 3.64 2.912 1.855 0 3.029-.728 3.029-3.546V117.5h5.659v19.279c0 5.847-3.428 8.524-8.43 8.524a8.778 8.778 0 0 1-8.5-5.166" class="cls-2" data-name="Tracé 648" transform="translate(-51.496 -89.908)"/>
    <path id="Tracé_649" d="M152.4 138.4l4.6-2.677c1.221 1.973 2.794 3.428 5.565 3.428 2.348 0 3.828-1.174 3.828-2.794 0-1.926-1.526-2.63-4.109-3.757l-1.409-.611c-4.086-1.738-6.786-3.922-6.786-8.524 0-4.227 3.217-7.467 8.266-7.467 3.593 0 6.176 1.245 8.031 4.509l-4.386 2.82c-.963-1.738-2.02-2.419-3.64-2.419a2.465 2.465 0 0 0-2.7 2.419c0 1.691 1.057 2.372 3.475 3.428l1.409.611c4.79 2.066 7.514 4.156 7.514 8.876 0 5.1-3.992 7.867-9.37 7.867-5.237.047-8.642-2.442-10.285-5.706" class="cls-2" data-name="Tracé 649" transform="translate(-116.613 -88.76)"/>
</svg>
