<svg xmlns="http://www.w3.org/2000/svg" id="node_logo" width="99.241" height="60.78" data-name="node logo" viewBox="0 0 99.241 60.78">
    <defs>
        <style>
            .cls-1,.cls-2{fill:#fff}.cls-2{fill-rule:evenodd}.cls-3{clip-path:url(#clip-path)}.cls-4{clip-path:url(#clip-path-2)}.cls-5{clip-path:url(#clip-path-3)}
        </style>
        <clipPath id="clip-path">
            <path id="Tracé_655" d="M204.377 226.078l-9.451 5.455a1.141 1.141 0 0 0-.571.988v10.918a1.14 1.14 0 0 0 .571.988l9.452 5.459a1.144 1.144 0 0 0 1.142 0l9.451-5.459a1.143 1.143 0 0 0 .57-.988v-10.918a1.141 1.141 0 0 0-.572-.988l-9.449-5.455a1.149 1.149 0 0 0-1.144 0" class="cls-1" data-name="Tracé 655" transform="translate(-194.354 -225.925)"/>
        </clipPath>
        <clipPath id="clip-path-2">
            <path id="Tracé_657" d="M195.4 244.244a1.144 1.144 0 0 0 .336.3l8.108 4.683 1.351.776a1.146 1.146 0 0 0 .658.149 1.166 1.166 0 0 0 .224-.041l9.968-18.252a1.13 1.13 0 0 0-.266-.211l-6.189-3.574-3.271-1.882a1.193 1.193 0 0 0-.3-.119zm0 0" data-name="Tracé 657" transform="translate(-195.398 -226.069)"/>
        </clipPath>
        <clipPath id="clip-path-3">
            <path id="Tracé_659" d="M206.9 225.938a1.153 1.153 0 0 0-.457.146l-9.425 5.439 10.163 18.51a1.134 1.134 0 0 0 .406-.14l9.451-5.46a1.145 1.145 0 0 0 .552-.78l-10.36-17.7a1.186 1.186 0 0 0-.231-.023h-.094" data-name="Tracé 659" transform="translate(-197.021 -225.934)"/>
        </clipPath>
    </defs>
    <path id="Tracé_650" d="M181.125 186.365a1.886 1.886 0 0 1-.94-.251l-2.992-1.771c-.447-.25-.229-.338-.081-.389a6.042 6.042 0 0 0 1.353-.617.227.227 0 0 1 .223.016l2.3 1.364a.3.3 0 0 0 .278 0l8.962-5.173a.283.283 0 0 0 .137-.242v-10.344a.288.288 0 0 0-.139-.247l-8.959-5.169a.276.276 0 0 0-.276 0l-8.957 5.169a.286.286 0 0 0-.142.245V179.3a.276.276 0 0 0 .139.24l2.454 1.418c1.333.666 2.147-.119 2.147-.909V169.84a.256.256 0 0 1 .26-.258h1.135a.257.257 0 0 1 .258.258v10.212a2.485 2.485 0 0 1-2.654 2.8 3.842 3.842 0 0 1-2.066-.561l-2.351-1.355a1.9 1.9 0 0 1-.94-1.635v-10.345a1.883 1.883 0 0 1 .94-1.633l8.971-5.175a1.965 1.965 0 0 1 1.884 0l8.96 5.178a1.891 1.891 0 0 1 .94 1.633V179.3a1.9 1.9 0 0 1-.94 1.633l-8.96 5.175a1.884 1.884 0 0 1-.944.251" class="cls-1" data-name="Tracé 650" transform="translate(-132.074 -125.585)"/>
    <path id="Tracé_651" d="M214.586 195.725c-3.921 0-4.744-1.8-4.744-3.31a.258.258 0 0 1 .26-.258h1.158a.259.259 0 0 1 .256.219c.175 1.18.7 1.775 3.067 1.775 1.889 0 2.692-.427 2.692-1.428 0-.577-.229-1.005-3.163-1.292-2.454-.242-3.971-.783-3.971-2.746 0-1.808 1.526-2.885 4.081-2.885 2.869 0 4.292 1 4.471 3.136a.261.261 0 0 1-.07.2.267.267 0 0 1-.191.083h-1.164a.257.257 0 0 1-.251-.2c-.28-1.241-.958-1.638-2.8-1.638-2.062 0-2.3.718-2.3 1.256 0 .653.283.844 3.064 1.211 2.755.366 4.063.882 4.063 2.818 0 1.952-1.629 3.071-4.469 3.071m10.916-10.968h.3a.261.261 0 0 0 .294-.274c0-.265-.182-.265-.283-.265h-.31zm-.366-.848h.666c.229 0 .678 0 .678.511a.445.445 0 0 1-.366.476c.267.018.285.193.321.44a1.892 1.892 0 0 0 .1.511h-.411c-.011-.09-.074-.583-.074-.61-.027-.11-.065-.164-.2-.164h-.339v.776h-.375zm-.8.965a1.448 1.448 0 1 0 1.443-1.445 1.45 1.45 0 0 0-1.443 1.445m3.177.007a1.727 1.727 0 1 1-1.727-1.727 1.732 1.732 0 0 1 1.727 1.727" class="cls-1" data-name="Tracé 651" transform="translate(-162.766 -142.071)"/>
    <path id="Tracé_652" d="M21.3 20.314a1.148 1.148 0 0 0-.574-1l-9.5-5.467a1.11 1.11 0 0 0-.522-.15h-.1a1.129 1.129 0 0 0-.525.15l-9.5 5.467a1.156 1.156 0 0 0-.575 1l.017 14.727a.565.565 0 0 0 .285.5.543.543 0 0 0 .57 0L6.524 32.3a1.159 1.159 0 0 0 .574-1v-6.874a1.144 1.144 0 0 1 .573-.994l2.4-1.385a1.141 1.141 0 0 1 .574-.154 1.121 1.121 0 0 1 .571.154l2.4 1.385a1.145 1.145 0 0 1 .574.994V31.3a1.162 1.162 0 0 0 .575 1l5.645 3.233a.561.561 0 0 0 .574 0 .576.576 0 0 0 .284-.5zm44.838 7.667a.285.285 0 0 1-.144.248l-3.265 1.881a.288.288 0 0 1-.286 0l-3.264-1.881a.284.284 0 0 1-.144-.248v-3.768a.289.289 0 0 1 .141-.249l3.262-1.884a.29.29 0 0 1 .289 0l3.264 1.884a.286.286 0 0 1 .144.249zm.88-27.908a.574.574 0 0 0-.854.5v14.584a.4.4 0 0 1-.6.348l-2.38-1.371a1.146 1.146 0 0 0-1.147 0l-9.507 5.485a1.145 1.145 0 0 0-.574.992v10.974a1.149 1.149 0 0 0 .574.994l9.505 5.49a1.152 1.152 0 0 0 1.148 0l9.505-5.492a1.15 1.15 0 0 0 .574-.994V4.232a1.15 1.15 0 0 0-.59-1zm31.653 24.041a1.148 1.148 0 0 0 .57-.992v-2.66a1.148 1.148 0 0 0-.571-.993l-9.445-5.483a1.147 1.147 0 0 0-1.151 0l-9.5 5.485a1.146 1.146 0 0 0-.574.994v10.97a1.152 1.152 0 0 0 .579 1l9.442 5.382a1.145 1.145 0 0 0 1.126.007l5.712-3.174a.573.573 0 0 0 0-1L85.3 28.162a.569.569 0 0 1-.289-.5v-3.437a.57.57 0 0 1 .287-.5l2.975-1.716a.567.567 0 0 1 .572 0l2.977 1.716a.572.572 0 0 1 .287.5v2.706a.572.572 0 0 0 .861.5zm0 0" class="cls-2" data-name="Tracé 652"/>
    <path id="Tracé_653" d="M387.848 105.1a.218.218 0 0 1 .22 0l1.824 1.052a.22.22 0 0 1 .11.191v2.107a.22.22 0 0 1-.11.191l-1.824 1.052a.218.218 0 0 1-.22 0l-1.823-1.052a.22.22 0 0 1-.112-.191v-2.11a.217.217 0 0 1 .11-.191zm0 0" class="cls-2" data-name="Tracé 653" transform="translate(-299.337 -81.497)"/>
    <g id="Groupe_181" class="cls-3" data-name="Groupe 181" transform="translate(26.034 13.889)">
        <path id="Tracé_654" d="M192.066 201.657L165.434 188.6l-13.656 27.86 26.632 13.055zm0 0" class="cls-1" data-name="Tracé 654" transform="translate(-161.329 -196.976)"/>
    </g>
    <g id="Groupe_182" class="cls-4" data-name="Groupe 182" transform="translate(26.268 13.921)">
        <path id="Tracé_656" d="M144.07 200.475l18.805 25.452 24.87-18.375-18.806-25.452zm0 0" class="cls-1" data-name="Tracé 656" transform="translate(-155.585 -191.965)"/>
    </g>
    <g id="Groupe_183" class="cls-5" data-name="Groupe 183" transform="translate(26.633 13.891)">
        <path id="Tracé_658" d="M197.02 225.934v24.1h20.568v-24.1zm0 0" class="cls-1" data-name="Tracé 658" transform="translate(-197.02 -225.934)"/>
    </g>
</svg>
