<svg xmlns="http://www.w3.org/2000/svg" width="26" height="26" viewBox="0 0 26 26">
    <defs>
        <style>
            .cls-1{fill:none;stroke:#fff;stroke-linecap:round;stroke-linejoin:round;stroke-width:2px}
        </style>
    </defs>
    <g id="instagram" transform="translate(1 1)">
        <path id="Tracé_615" d="M7 1h12a5.941 5.941 0 0 1 6 6v12a5.941 5.941 0 0 1-6 6H7a5.941 5.941 0 0 1-6-6V7a5.941 5.941 0 0 1 6-6z" class="cls-1" data-name="Tracé 615" transform="translate(-1 -1)"/>
        <path id="Tracé_616" d="M15 10.4A3.988 3.988 0 1 1 10.5 7a2.438 2.438 0 0 1 1.2 0 4.035 4.035 0 0 1 3.3 3.4z" class="cls-1" data-name="Tracé 616" transform="translate(1.017 .977)"/>
        <path id="Ligne_19" d="M0 0" class="cls-1" data-name="Ligne 19" transform="translate(18.6 5.4)"/>
    </g>
</svg>
