<svg xmlns="http://www.w3.org/2000/svg" id="linkedin" width="24" height="24" viewBox="0 0 24 24">
    <defs>
        <style>
            .cls-1{fill:#fff}
        </style>
    </defs>
    <path id="Tracé_22" d="M9.545 6a3.545 3.545 0 1 0 3.545 3.545A3.558 3.558 0 0 0 9.545 6zm0 1.636a1.909 1.909 0 1 1-1.909 1.909 1.9 1.9 0 0 1 1.909-1.909zm14.182 5.455a5.42 5.42 0 0 0-3.545 1.3.848.848 0 0 0-.818-.75H15a.85.85 0 0 0-.818.818v14.723A.85.85 0 0 0 15 30h4.636a.85.85 0 0 0 .818-.818V21a2.886 2.886 0 0 1 .486-1.628 1.111 1.111 0 0 1 .878-.554h.545a1.111 1.111 0 0 1 .878.554A2.886 2.886 0 0 1 23.727 21v8.182a.85.85 0 0 0 .818.818h4.636a.85.85 0 0 0 .819-.818v-9.546a7.063 7.063 0 0 0-1.381-4.713 6.137 6.137 0 0 0-4.892-1.832zm-16.449.545a.847.847 0 0 0-.733.818v14.728a.85.85 0 0 0 .819.818H12a.85.85 0 0 0 .818-.818V14.455a.85.85 0 0 0-.818-.819zm16.449 1.091c1.907 0 2.981.48 3.648 1.261a5.55 5.55 0 0 1 .989 3.648v8.727h-3V21a4.439 4.439 0 0 0-.793-2.582 2.76 2.76 0 0 0-2.207-1.236h-.545a2.76 2.76 0 0 0-2.207 1.236A4.439 4.439 0 0 0 18.818 21c-.028 3 .028 5.785 0 7.364h-3V15.273h2.727v1.091a.818.818 0 0 0 1.455.511c.91-1.131 1.786-2.148 3.727-2.148zm-15.545.545h3c-.028 8.726-.013 12.335 0 13.091h-3z" class="cls-1" data-name="Tracé 22" transform="translate(-6 -6)"/>
</svg>
