<svg xmlns="http://www.w3.org/2000/svg" width="152.414" height="26.222" viewBox="0 0 152.414 26.222">
    <defs>
        <style>
            .cls-1{fill:#fff;fill-rule:evenodd}
        </style>
    </defs>
    <g id="logo_lab5com_blanc" data-name="logo lab5com blanc">
        <path id="LAB-5COM" d="M176.143 75.965v1.093H160.92V51.564h1.093v24.4zm18.046 1.093l-7.744-22.325-8.121 22.325h-1.165l9.287-25.53 9.287 25.53zm11.443 0h-5.827V51.564h4.443q4.807 0 7.247 1.766a5.78 5.78 0 0 1 2.44 4.971 5.711 5.711 0 0 1-3.059 5.354 6.735 6.735 0 0 1 2.039 11.49q-2.403 1.913-7.283 1.913zm0-1.093a16.624 16.624 0 0 0 3.132-.273 10.663 10.663 0 0 0 2.713-.91 4.714 4.714 0 0 0 2.021-1.876 5.716 5.716 0 0 0 .728-2.95 5.212 5.212 0 0 0-3.751-5.281l-2.185-.8 2.039-1.165a4.67 4.67 0 0 0 2.513-4.407q0-5.645-8.595-5.645H200.9v23.307zm29.962-13.512q5.609 0 8.1 1.912a6.493 6.493 0 0 1 2.495 5.481 7.341 7.341 0 0 1-.983 3.788 6.663 6.663 0 0 1-2.932 2.622 10.8 10.8 0 0 1-4.753.947 13.525 13.525 0 0 1-5.172-.983 8.727 8.727 0 0 1-3.642-2.549l.692-.874a7.935 7.935 0 0 0 3.314 2.367 12.379 12.379 0 0 0 4.807.91 8.01 8.01 0 0 0 5.518-1.712 5.769 5.769 0 0 0 1.912-4.516 5.411 5.411 0 0 0-2.185-4.68q-2.185-1.584-7.43-1.584h-4.953l1.348-12.018h13.147v1.129h-12.123l-1.093 9.76zm31.389 9.947a8.431 8.431 0 0 1-2.768 3.715 9.017 9.017 0 0 1-5.354 1.311q-4.48 0-6.483-2.75t-2-8.577v-3.573q0-5.827 2-8.577t6.483-2.75a9.017 9.017 0 0 1 5.354 1.311 8.431 8.431 0 0 1 2.768 3.715L266 56.7a7.326 7.326 0 0 0-2.367-3.26 7.98 7.98 0 0 0-4.771-1.147 9.126 9.126 0 0 0-3.059.455 5.789 5.789 0 0 0-2.294 1.548 7.019 7.019 0 0 0-1.53 3.15 21.5 21.5 0 0 0-.51 5.08V66.1a21.5 21.5 0 0 0 .51 5.08 7.019 7.019 0 0 0 1.53 3.15 5.789 5.789 0 0 0 2.294 1.548 9.126 9.126 0 0 0 3.059.455 7.98 7.98 0 0 0 4.771-1.147A7.326 7.326 0 0 0 266 71.923zm19.552 2.294q-2 2.731-6.483 2.731t-6.483-2.75q-2-2.75-2-8.577v-3.572q0-5.827 2-8.577t6.483-2.75q4.48 0 6.483 2.75t2 8.577V66.1q.003 5.823-2.001 8.59zm-3.423-21.924a8.8 8.8 0 0 0-3.059-.473 9.125 9.125 0 0 0-3.059.455A5.789 5.789 0 0 0 274.7 54.3a7.019 7.019 0 0 0-1.53 3.15 21.5 21.5 0 0 0-.51 5.08v3.57a21.5 21.5 0 0 0 .51 5.08 7.019 7.019 0 0 0 1.53 3.15 5.789 5.789 0 0 0 2.294 1.548 10.507 10.507 0 0 0 6.118 0 5.789 5.789 0 0 0 2.294-1.548 7.02 7.02 0 0 0 1.53-3.15 21.5 21.5 0 0 0 .51-5.08v-3.574a21.5 21.5 0 0 0-.51-5.08 7.02 7.02 0 0 0-1.53-3.15 5.617 5.617 0 0 0-2.295-1.53zm29.13 24.255V54.15l-8.195 17.55-8.194-17.59v22.948l-1.093-.036V51.528h1.093l8.194 17.59 8.194-17.554 1.093-.036v25.53z" class="cls-1" transform="translate(-160.92 -51.2)"/>
    </g>
</svg>
