<svg xmlns="http://www.w3.org/2000/svg" width="31.333" height="26.149" viewBox="0 0 31.333 26.149">
    <defs>
        <style>
            .cls-1{fill:none;stroke:#fff;stroke-linecap:round;stroke-linejoin:round;stroke-width:2px}
        </style>
    </defs>
    <path id="twitter" d="M30.333 3.02a13.156 13.156 0 0 1-4.133 2 5.813 5.813 0 0 0-8.4-.533 5.673 5.673 0 0 0-2.134 4.533v1.333a14.255 14.255 0 0 1-12-6s-5.333 12 6.666 17.333A15.563 15.563 0 0 1 1 24.353c12 6.666 26.666 0 26.666-15.333a2.6 2.6 0 0 0-.133-1.067 10.179 10.179 0 0 0 2.8-4.933z" class="cls-1" transform="translate(0 -1.938)"/>
</svg>
